<?xml version="1.0" standalone="no"?>
<!DOCTYPE svg PUBLIC "-//W3C//DTD SVG 20010904//EN"
 "http://www.w3.org/TR/2001/REC-SVG-20010904/DTD/svg10.dtd">
<svg version="1.0" xmlns="http://www.w3.org/2000/svg"
 width="260.000000pt" height="261.000000pt" viewBox="0 0 260.000000 261.000000"
 preserveAspectRatio="xMidYMid meet" id="svg" >

<g transform="translate(0.000000,261.000000) scale(0.100000,-0.100000)"
fill="#000000" stroke="none" style="fill:green">
<path d="M1332 2438 c-7 -7 -12 -18 -12 -25 0 -10 -11 -12 -42 -7 l-43 5 24
-21 c19 -16 26 -18 32 -8 7 10 9 8 9 -4 0 -11 8 -18 20 -18 11 0 20 5 20 11 0
5 -4 7 -10 4 -5 -3 -10 1 -10 11 0 13 6 15 30 11 23 -5 30 -3 30 9 0 8 -4 12
-10 9 -5 -3 -10 3 -10 14 0 24 -10 27 -28 9z"/>
<path d="M1450 2403 c-1 -26 -2 -27 -14 -10 -10 13 -16 15 -21 7 -6 -9 -10 -9
-16 1 -7 11 -9 10 -9 -3 0 -10 6 -18 14 -18 11 0 13 -9 9 -35 -4 -23 -2 -35 6
-35 6 0 11 14 11 31 0 24 3 29 18 25 14 -5 17 1 19 29 2 19 -2 35 -7 35 -6 0
-10 -12 -10 -27z"/>
<path d="M1517 2408 c-7 -25 -5 -29 18 -32 9 -1 20 -9 25 -16 5 -8 12 -11 16
-7 4 4 12 3 18 -3 9 -6 12 2 13 29 2 37 1 38 -33 36 -19 -1 -34 2 -34 7 0 17
-18 7 -23 -14z"/>
<path d="M1476 2394 c-8 -21 13 -49 27 -35 6 6 4 17 -6 31 -13 18 -15 19 -21
4z"/>
<path d="M1629 2382 c-13 -6 -14 -13 -4 -52 l12 -45 11 40 c19 64 16 72 -19
57z"/>
<path d="M1100 2318 c0 -68 -1 -78 -10 -78 -4 0 -6 -8 -3 -18 2 -10 -5 -26
-16 -36 -12 -11 -21 -15 -21 -11 0 5 -7 0 -15 -11 -16 -21 -21 -84 -6 -84 4 0
6 12 3 26 -4 20 -1 25 9 22 8 -3 14 -18 14 -37 0 -31 17 -51 43 -51 22 0 13
19 -13 26 -34 9 -32 28 3 20 l27 -6 -21 18 c-17 14 -21 26 -16 48 6 32 42 72
60 66 7 -2 12 3 12 12 0 9 8 16 20 16 11 0 20 5 20 11 0 9 -16 7 -56 -8 -7 -2
-11 6 -11 21 0 26 2 26 80 11 11 -2 17 3 17 13 -1 24 -27 55 -39 47 -6 -3 -11
-2 -11 4 0 5 -11 8 -25 5 -14 -2 -25 0 -25 6 0 5 -5 10 -10 10 -6 0 -11 -19
-10 -42z m90 -19 c0 -12 -21 -11 -40 1 -13 9 -13 11 0 19 15 10 40 -3 40 -20z"/>
<path d="M1220 2331 c0 -5 7 -17 16 -26 14 -13 19 -14 25 -3 6 8 3 14 -6 16
-8 2 -15 8 -15 13 0 5 -4 9 -10 9 -5 0 -10 -4 -10 -9z"/>
<path d="M722 2305 c3 -26 7 -30 36 -32 26 -1 32 2 32 19 0 15 -5 18 -16 14
-10 -4 -25 1 -36 11 -19 17 -20 17 -16 -12z"/>
<path d="M1701 2311 l-24 -19 21 -13 c12 -8 22 -22 22 -32 0 -14 4 -17 18 -12
9 4 22 7 27 7 6 0 18 -3 28 -7 10 -4 17 -3 17 4 0 6 -4 11 -10 11 -5 0 -10 9
-10 20 0 24 -9 26 -25 3 -17 -23 -38 -6 -33 28 5 34 1 35 -31 10z"/>
<path d="M1967 2274 c-3 -22 -9 -48 -13 -59 -7 -19 -7 -19 9 -3 9 9 17 23 17
31 0 9 4 17 9 19 5 2 4 13 -3 27 -13 23 -13 23 -19 -15z"/>
<path d="M1338 2275 c-6 -28 8 -43 24 -27 11 11 2 52 -12 52 -4 0 -10 -11 -12
-25z"/>
<path d="M1870 2265 c0 -21 -39 -59 -40 -38 0 4 -5 0 -11 -10 -6 -10 -8 -22
-4 -25 4 -4 10 -2 12 4 2 6 15 9 28 6 20 -3 25 0 25 16 0 11 7 23 16 26 13 5
15 2 11 -14 -5 -19 12 -28 25 -14 10 9 -4 44 -17 44 -7 0 -15 7 -19 15 -9 24
-26 17 -26 -10z"/>
<path d="M1605 2270 c-4 -6 -17 -9 -30 -6 -17 4 -24 1 -28 -15 -3 -12 -10 -18
-16 -14 -16 9 -13 -14 4 -31 12 -12 18 -12 37 -2 28 16 38 29 31 41 -3 5 1 13
8 18 7 4 11 11 7 14 -3 4 -9 1 -13 -5z m-25 -34 c0 -7 -7 -19 -15 -26 -12 -10
-15 -9 -15 7 0 11 3 23 7 26 11 12 23 8 23 -7z"/>
<path d="M834 2255 c-4 -8 -13 -15 -21 -15 -12 0 -12 -2 1 -16 9 -8 16 -23 16
-31 0 -12 -5 -11 -20 7 -18 21 -20 21 -20 4 0 -29 13 -43 38 -41 19 1 22 6 17
24 -3 15 -1 25 8 29 9 3 12 14 9 30 -5 27 -20 32 -28 9z"/>
<path d="M744 2235 c-3 -13 -15 -27 -25 -30 -10 -4 -19 -11 -19 -16 0 -14 -26
-11 -40 6 -14 17 -30 20 -30 5 0 -5 14 -17 31 -26 23 -11 28 -19 20 -27 -8 -8
-17 -5 -34 11 -25 24 -61 30 -54 10 2 -7 12 -13 23 -13 10 0 22 -9 27 -19 9
-24 -1 -36 -13 -16 -9 13 -14 8 -12 -11 1 -4 -8 -4 -20 -1 -16 4 -19 2 -12 -9
14 -24 15 -49 0 -49 -8 0 -19 -14 -25 -31 -14 -40 -14 -49 0 -49 6 0 9 6 6 14
-3 8 3 22 14 32 10 9 19 13 19 8 0 -5 9 2 19 16 18 22 18 25 3 38 -10 7 -12
11 -5 8 6 -4 14 -2 18 4 3 5 11 10 17 10 6 0 5 -6 -3 -16 -12 -14 -11 -16 6
-12 14 3 19 11 17 28 -2 16 7 33 27 51 17 15 27 30 23 34 -4 4 3 3 15 -4 12
-6 24 -16 26 -23 3 -8 6 -6 6 5 1 9 -4 17 -10 17 -6 0 -9 10 -7 23 2 12 9 21
17 19 9 -2 11 3 7 13 -3 9 -6 19 -6 21 0 2 -4 4 -10 4 -5 0 -12 -11 -16 -25z"/>
<path d="M950 2243 c0 -13 -2 -23 -4 -23 -2 0 -13 -3 -23 -7 -16 -6 -16 -5 -4
10 16 21 11 30 -13 21 -18 -7 -21 -20 -6 -29 17 -10 11 -25 -10 -25 -11 0 -20
-4 -20 -10 0 -5 7 -7 15 -4 11 4 15 0 15 -16 0 -18 3 -20 14 -11 12 10 17 8
26 -8 12 -24 40 -28 40 -7 0 8 -7 16 -15 20 -17 6 -21 26 -5 26 5 0 15 -6 22
-13 7 -8 20 -12 30 -9 20 5 23 17 8 27 -6 4 -8 10 -5 15 7 11 -5 40 -17 40 -5
0 -7 -9 -3 -19 7 -23 2 -26 -50 -35 l-40 -6 23 19 c13 11 30 17 37 14 19 -7
19 8 0 33 -14 19 -14 18 -15 -3z"/>
<path d="M1994 2224 c-4 -14 -1 -36 5 -48 11 -20 16 -21 56 -12 24 6 41 14 39
18 -3 5 -10 6 -15 3 -5 -4 -9 -2 -9 4 0 16 13 19 38 10 22 -8 22 -9 5 -27 -10
-10 -23 -17 -29 -15 -6 2 -14 -6 -18 -19 -10 -38 -6 -45 9 -18 8 14 14 21 15
17 0 -4 9 -3 20 3 11 6 18 15 15 21 -6 9 6 13 36 10 15 -2 45 47 35 57 -3 2
-17 -3 -32 -12 -14 -10 -27 -16 -29 -14 -1 2 -8 13 -14 26 -13 25 -31 29 -31
6 0 -8 -4 -13 -9 -9 -6 3 -15 -4 -21 -15 -9 -17 -14 -19 -25 -10 -11 9 -12 7
-8 -12 4 -18 2 -20 -5 -8 -6 8 -8 27 -5 42 7 36 -14 38 -23 2z"/>
<path d="M1480 2223 c1 -13 29 -47 35 -42 9 10 -8 49 -21 49 -8 0 -14 -3 -14
-7z"/>
<path d="M1605 2197 c-10 -8 -15 -19 -11 -25 10 -17 26 -15 26 4 0 14 3 14 15
4 8 -7 15 -20 15 -30 0 -27 34 -62 48 -48 8 8 13 7 18 -5 9 -24 23 -11 16 15
-4 17 -2 20 11 15 14 -5 27 10 27 34 0 21 -38 8 -44 -16 -11 -42 -44 -32 -66
20 -21 49 -27 52 -55 32z"/>
<path d="M1124 2190 c-41 -16 -36 -98 4 -83 15 6 15 4 4 -9 -8 -9 -9 -19 -4
-22 9 -6 21 4 36 31 5 9 -1 12 -24 9 -31 -3 -49 7 -30 19 6 4 8 11 5 16 -4 5
-2 9 4 9 5 0 14 -7 19 -16 6 -11 11 -13 16 -5 4 6 2 11 -3 11 -18 0 -13 28 7
39 22 13 -3 14 -34 1z"/>
<path d="M1407 2186 c-17 -13 -17 -15 5 -30 28 -20 50 -21 24 -1 -16 12 -17
17 -6 30 15 19 1 19 -23 1z"/>
<path d="M1710 2186 c0 -8 -6 -16 -12 -19 -10 -4 -10 -7 -1 -17 10 -11 14 -8
23 14 12 34 12 36 0 36 -5 0 -10 -6 -10 -14z"/>
<path d="M1180 2162 c0 -6 7 -13 16 -16 8 -3 12 -10 9 -16 -3 -5 -1 -10 5 -10
11 0 26 28 19 34 -11 10 -49 16 -49 8z"/>
<path d="M1560 2133 c0 -34 3 -38 26 -39 25 -2 25 -2 5 13 -16 10 -19 21 -15
39 4 14 2 24 -5 24 -6 0 -11 -17 -11 -37z"/>
<path d="M1828 2153 c-21 -5 -23 -14 -6 -31 8 -8 8 -15 -2 -27 -11 -13 -9 -15
14 -15 14 0 26 5 26 11 0 5 -5 7 -10 4 -6 -4 -8 7 -5 29 2 20 3 35 2 35 -1 -1
-10 -3 -19 -6z"/>
<path d="M1250 2140 c-10 -6 -11 -10 -2 -10 6 0 11 -5 10 -11 -2 -6 3 -14 11
-17 8 -2 11 0 7 6 -3 5 1 12 9 16 8 3 15 10 15 16 0 13 -30 13 -50 0z"/>
<path d="M1312 2133 c2 -10 10 -18 18 -18 8 0 16 8 18 18 2 12 -3 17 -18 17
-15 0 -20 -5 -18 -17z"/>
<path d="M2133 2130 c-3 -11 -10 -20 -15 -20 -5 0 -6 -5 -2 -12 5 -7 1 -9 -12
-6 -18 4 -20 0 -19 -38 0 -37 3 -43 18 -38 10 3 24 0 32 -6 12 -10 15 -9 15 3
0 9 -9 21 -20 27 -11 6 -20 18 -20 28 0 10 3 13 8 6 20 -29 97 -18 85 12 -7
18 -28 18 -46 -1 -16 -15 -27 -10 -27 12 0 7 5 12 11 11 6 -2 18 7 26 20 15
21 14 22 -7 22 -13 0 -24 -8 -27 -20z"/>
<path d="M425 2130 c-3 -5 -3 -14 0 -20 3 -5 -6 -15 -20 -22 -26 -11 -26 -12
-6 -20 25 -9 27 -21 5 -42 -17 -17 -8 -21 15 -7 8 5 12 19 9 33 -2 13 2 30 9
37 17 15 18 14 28 -18 6 -20 4 -23 -9 -18 -18 7 -20 -1 -6 -23 6 -10 10 -11
10 -2 0 6 9 12 20 12 13 0 20 -7 20 -20 0 -14 7 -20 22 -20 l21 0 -23 25 c-18
19 -20 28 -12 38 7 8 9 17 5 20 -11 12 -23 7 -23 -9 0 -8 -5 -12 -11 -9 -6 4
-8 13 -5 20 2 7 -3 23 -13 34 -21 24 -27 25 -36 11z"/>
<path d="M712 2116 c-6 -13 -8 -27 -5 -30 7 -7 42 37 36 46 -8 14 -20 8 -31
-16z"/>
<path d="M856 2119 c-14 -11 -26 -26 -26 -32 0 -7 7 -4 15 7 8 10 21 16 29 13
8 -3 19 0 26 7 19 24 -16 27 -44 5z"/>
<path d="M370 2121 c0 -5 6 -14 14 -20 16 -13 32 2 21 19 -8 12 -35 13 -35 1z"/>
<path d="M1440 2102 c0 -16 8 -37 18 -48 16 -17 17 -22 5 -33 -8 -7 -11 -21
-8 -32 5 -15 3 -19 -8 -17 -9 2 -16 -1 -16 -7 0 -5 9 -10 19 -9 11 0 20 -3 20
-7 0 -3 9 -9 20 -12 17 -4 20 0 20 29 0 23 5 34 14 34 24 0 28 -18 11 -43 -17
-26 -12 -37 17 -37 10 0 18 -7 18 -16 0 -8 5 -12 10 -9 6 3 15 -6 20 -20 10
-26 30 -30 38 -7 2 7 -4 12 -13 12 -9 0 -13 5 -10 10 3 6 -1 10 -9 10 -9 0
-16 5 -16 10 0 6 -11 15 -24 20 -23 9 -24 9 -9 54 10 29 21 46 32 46 14 1 14
2 -1 14 -10 7 -18 19 -18 25 0 7 -5 9 -10 6 -7 -4 -7 -13 0 -24 6 -12 5 -22
-2 -29 -17 -17 -36 -15 -41 6 -2 11 -7 6 -13 -17 -11 -39 -34 -54 -34 -22 0
12 5 21 10 21 6 0 10 12 10 26 0 14 -4 23 -9 19 -6 -3 -15 3 -20 14 -15 27
-14 30 9 24 11 -3 20 -10 20 -15 0 -5 5 -6 10 -3 19 12 11 33 -10 28 -12 -3
-22 1 -26 11 -10 26 -24 19 -24 -12z"/>
<path d="M1620 2121 c0 -6 5 -13 10 -16 18 -11 11 -35 -10 -35 -22 0 -25 -8
-9 -30 9 -12 10 -12 5 4 -6 16 -4 17 9 6 12 -10 15 -10 15 3 0 8 5 17 11 19 7
2 7 12 0 31 -10 26 -31 38 -31 18z"/>
<path d="M1785 2112 c-6 -4 -16 -15 -24 -24 -12 -16 -11 -18 7 -18 12 0 22 9
25 22 7 26 5 30 -8 20z"/>
<path d="M2000 2113 c0 -6 -3 -18 -6 -26 -4 -11 1 -13 20 -10 18 4 28 0 32
-11 3 -9 13 -16 22 -16 11 0 8 6 -9 20 -13 11 -32 27 -41 36 -10 10 -18 13
-18 7z"/>
<path d="M1176 2094 c-11 -28 -7 -35 14 -24 23 12 27 40 6 40 -8 0 -17 -7 -20
-16z"/>
<path d="M1941 2073 c1 -22 3 -30 6 -18 3 11 9 25 14 31 5 6 6 14 2 17 -15 16
-23 5 -22 -30z"/>
<path d="M320 2080 c0 -5 -7 -10 -15 -10 -8 0 -15 -4 -15 -10 0 -19 38 -10 43
10 3 11 1 20 -4 20 -5 0 -9 -4 -9 -10z"/>
<path d="M1327 2078 c-6 -20 3 -46 19 -52 10 -4 14 4 14 29 0 35 -23 50 -33
23z"/>
<path d="M924 2056 c-19 -14 -19 -15 0 -33 18 -17 18 -17 11 5 -7 23 1 28 24
13 12 -7 12 -13 0 -40 -8 -17 -18 -31 -22 -31 -5 0 -5 -4 -2 -10 4 -6 -5 -10
-20 -10 -14 0 -24 -4 -20 -10 3 -5 15 -6 29 0 16 6 31 4 47 -6 13 -7 32 -16
41 -20 26 -9 31 -34 7 -34 -25 0 -22 -33 4 -38 12 -2 15 1 11 12 -5 12 -2 15
10 10 22 -8 20 8 -5 40 -12 16 -16 26 -8 26 8 0 7 6 -4 18 -10 10 -14 23 -10
28 5 5 4 6 -1 2 -4 -4 -15 -1 -22 7 -19 18 -2 67 21 59 18 -7 20 -30 3 -38
-10 -5 -10 -7 0 -12 6 -3 12 -12 12 -20 0 -8 5 -14 10 -14 7 0 7 6 1 18 -6 11
-6 24 0 33 14 23 10 39 -10 39 -11 0 -23 5 -26 10 -3 6 -12 10 -18 10 -8 0 -8
-3 2 -9 10 -6 10 -10 1 -16 -6 -4 -19 0 -29 9 -15 14 -20 14 -37 2z m80 -98
c5 -9 6 -21 2 -25 -5 -4 -11 -2 -13 5 -3 6 -11 12 -19 12 -8 0 -14 7 -14 16 0
20 29 15 44 -8z"/>
<path d="M350 2040 c0 -16 -7 -20 -31 -20 -19 0 -28 -4 -24 -11 4 -6 14 -8 22
-5 8 3 23 1 33 -4 23 -12 30 -3 23 33 -6 31 -23 37 -23 7z"/>
<path d="M1666 2018 c7 -46 11 -54 19 -46 9 8 -6 88 -16 88 -5 0 -6 -19 -3
-42z"/>
<path d="M1801 2037 c-25 -27 -27 -47 -5 -47 8 0 12 4 9 10 -4 6 2 7 16 1 27
-9 37 -31 15 -31 -10 0 -13 -6 -10 -15 9 -23 21 -18 28 11 4 14 12 23 19 21 7
-2 22 0 35 4 15 6 22 5 22 -4 0 -8 4 -7 10 3 5 8 10 11 10 7 0 -4 9 -3 20 3
16 9 18 8 14 -5 -3 -8 -10 -13 -14 -10 -4 3 -13 -2 -20 -10 -10 -13 -8 -15 13
-15 18 0 31 10 46 36 12 20 20 42 18 48 -3 6 -9 0 -14 -13 -6 -16 -12 -20 -17
-13 -5 9 -13 9 -27 1 -21 -11 -54 5 -44 21 3 5 1 11 -4 14 -5 3 -12 -6 -15
-20 -4 -15 -10 -24 -13 -20 -3 3 -13 0 -22 -6 -13 -10 -14 -10 -3 2 14 16 16
50 4 50 -5 0 -14 -12 -20 -26 -7 -14 -17 -22 -23 -19 -7 5 -7 11 1 20 20 24
-6 25 -29 2z"/>
<path d="M1128 2038 c15 -15 -3 -38 -31 -38 -16 0 -18 -3 -9 -12 8 -8 15 -8
27 2 8 7 18 10 22 6 3 -3 1 -6 -5 -6 -17 0 -15 -27 3 -34 9 -3 15 0 15 10 0
11 6 13 20 9 15 -5 18 -3 14 9 -3 9 -14 16 -23 16 -9 0 -12 3 -6 8 6 4 11 15
11 25 1 12 -6 17 -24 17 -20 0 -23 -3 -14 -12z"/>
<path d="M757 2033 c-15 -14 -6 -31 13 -26 11 3 20 12 20 19 0 14 -22 19 -33
7z"/>
<path d="M1183 2020 c-1 -11 2 -18 7 -15 5 3 11 1 15 -5 3 -5 2 -10 -3 -10 -6
0 -9 -8 -8 -17 0 -10 -5 -17 -11 -15 -7 1 -13 -3 -13 -9 0 -12 -42 -8 -85 6
-16 5 -17 5 -5 -4 18 -13 19 -40 3 -66 -18 -27 -17 -30 13 -33 21 -2 24 1 15
12 -9 10 -8 15 4 19 8 4 12 13 9 22 -3 8 -2 15 4 15 5 0 12 -7 16 -15 9 -25
26 -17 26 13 1 23 3 25 13 12 16 -19 47 -25 46 -8 -1 7 -4 24 -8 38 -4 14 -4
36 1 49 7 19 5 22 -7 17 -8 -3 -15 -1 -15 4 0 19 -16 10 -17 -10z"/>
<path d="M1260 2026 c0 -11 -7 -28 -17 -38 -9 -10 -12 -18 -7 -19 5 0 17 -2
27 -4 9 -2 17 1 17 6 0 5 -5 9 -11 9 -8 0 -8 4 1 14 8 11 9 20 1 33 -10 17
-10 17 -11 -1z"/>
<path d="M1391 2008 c-1 -42 -17 -50 -31 -15 -8 21 -9 21 -9 -5 -1 -16 -6 -28
-12 -28 -5 0 -7 5 -3 11 4 7 1 10 -7 7 -8 -3 -13 -12 -11 -21 2 -12 -6 -15
-45 -12 -26 2 -42 0 -35 -4 7 -4 12 -12 11 -17 -4 -22 3 -22 23 -2 20 20 23
21 26 6 2 -9 12 -16 23 -15 14 1 17 6 13 20 -4 14 -1 18 13 17 51 -6 63 0 62
28 0 15 -4 36 -9 47 -7 16 -9 13 -9 -17z"/>
<path d="M2042 2004 c0 -20 -6 -40 -13 -45 -7 -4 -11 -10 -9 -13 12 -11 41 25
47 58 4 28 2 36 -10 36 -11 0 -15 -10 -15 -36z"/>
<path d="M635 2020 c-3 -5 -15 -10 -25 -10 -10 0 -22 -5 -26 -12 -5 -8 0 -9
14 -6 12 4 25 2 28 -3 3 -5 10 -9 16 -9 6 0 8 3 5 7 -4 3 -2 12 4 19 6 8 6 14
0 18 -5 4 -12 2 -16 -4z"/>
<path d="M830 2019 c0 -5 7 -9 15 -9 8 0 15 -4 15 -10 0 -5 4 -10 8 -10 4 0 8
8 8 19 0 13 -7 19 -23 19 -13 0 -23 -4 -23 -9z"/>
<path d="M2236 2014 c-4 -9 -5 -17 -4 -18 2 -1 14 -7 26 -14 13 -7 25 -12 26
-10 1 2 8 12 16 22 14 18 13 19 -12 12 -21 -5 -28 -3 -28 9 0 20 -16 19 -24
-1z"/>
<path d="M684 1990 c0 -23 18 -26 35 -6 9 11 8 15 -5 20 -25 10 -30 7 -30 -14z"/>
<path d="M2100 1965 c0 -19 -4 -35 -10 -35 -5 0 -10 -5 -10 -11 0 -6 8 -9 18
-7 10 2 16 11 14 21 -2 9 4 20 13 23 8 3 15 12 15 20 0 8 -6 11 -17 7 -11 -4
-14 -3 -9 5 4 7 2 12 -3 12 -6 0 -11 -16 -11 -35z"/>
<path d="M323 1965 c0 -18 5 -25 18 -25 11 0 19 6 19 14 0 8 3 16 8 19 4 2 2
2 -5 1 -7 -2 -15 1 -18 6 -11 18 -22 10 -22 -15z"/>
<path d="M459 1984 c-1 -5 -1 -12 -1 -16 1 -3 -5 -12 -13 -18 -8 -7 -15 -28
-15 -47 0 -29 2 -33 14 -24 14 12 32 99 22 109 -3 3 -7 1 -7 -4z"/>
<path d="M807 1983 c-3 -5 -1 -17 3 -28 7 -18 9 -18 15 -3 10 24 30 3 40 -40
3 -18 10 -32 15 -32 14 0 -16 90 -34 102 -14 10 -34 10 -39 1z"/>
<path d="M2173 1982 c-14 -9 -36 -62 -29 -70 10 -9 38 8 33 21 -2 6 0 20 5 30
11 22 7 29 -9 19z"/>
<path d="M2205 1965 c-4 -17 -8 -36 -11 -42 -2 -7 4 -13 12 -13 8 0 13 4 10 9
-3 5 3 11 14 14 11 3 20 1 20 -4 0 -5 -5 -9 -12 -9 -9 0 -8 -3 1 -12 11 -10
14 -10 18 0 9 22 20 12 15 -14 -3 -17 -9 -23 -19 -20 -19 8 -39 -4 -24 -13 13
-9 -14 -44 -41 -54 -26 -9 -22 -34 5 -32 12 2 21 8 19 14 -3 14 22 41 37 41 6
0 8 -7 5 -15 -4 -8 -1 -15 5 -15 6 0 11 4 11 8 0 5 13 22 30 38 32 31 38 46
18 43 -36 -4 -39 2 -17 32 l22 32 -31 -5 c-18 -2 -32 0 -32 5 0 5 -6 7 -12 4
-7 -2 -18 5 -25 17 -11 20 -12 20 -18 -9z"/>
<path d="M389 1963 c-19 -5 -21 -63 -1 -63 6 0 12 4 12 9 0 5 7 17 16 25 8 9
12 20 9 26 -6 10 -9 11 -36 3z"/>
<path d="M481 1951 c-9 -17 -8 -24 8 -40 15 -15 21 -16 25 -6 2 7 13 12 23 11
22 -4 25 -55 7 -103 -8 -19 -9 -33 -3 -33 5 0 9 6 9 13 0 8 11 24 25 37 28 26
35 50 8 29 -15 -12 -16 -12 -10 4 4 10 7 21 7 23 0 3 4 2 10 -1 6 -3 7 1 4 9
-3 8 -15 18 -25 21 -14 5 -18 12 -14 26 4 12 2 19 -7 19 -7 0 -23 3 -35 6 -15
4 -24 0 -32 -15z"/>
<path d="M675 1940 c9 -17 21 -28 26 -24 8 4 9 -1 4 -16 -6 -18 -4 -22 8 -17
9 3 18 -1 21 -10 4 -9 9 -14 11 -11 10 10 -25 64 -55 87 l-31 23 16 -32z"/>
<path d="M1879 1941 c23 -18 23 -19 5 -29 -10 -6 -15 -14 -11 -18 4 -4 14 1
22 12 10 14 14 15 15 5 0 -12 3 -12 12 -3 9 9 6 16 -12 32 -13 11 -30 20 -39
20 -12 0 -10 -5 8 -19z"/>
<path d="M597 1923 c11 -10 18 -24 16 -30 -3 -7 0 -13 6 -13 20 0 11 -37 -11
-47 -15 -6 -18 -12 -10 -17 7 -4 12 -2 12 4 0 6 4 9 10 5 5 -3 6 -13 3 -22 -6
-16 5 -13 32 9 6 5 19 15 30 23 16 12 17 16 6 24 -7 5 -10 14 -6 21 5 7 1 11
-11 10 -36 -4 -41 0 -36 25 4 23 1 25 -28 25 -32 0 -33 0 -13 -17z"/>
<path d="M1755 1916 c-12 -40 -12 -56 0 -56 8 0 11 9 7 25 -4 24 -3 25 23 15
16 -6 32 -7 36 -3 5 5 -8 13 -27 19 -26 9 -36 9 -39 0z"/>
<path d="M1990 1920 c0 -3 4 -11 9 -19 6 -9 10 -10 16 -2 3 7 15 9 26 6 11 -4
19 -2 19 4 0 12 -2 13 -42 15 -16 1 -28 -1 -28 -4z"/>
<path d="M932 1903 c2 -10 11 -19 21 -21 12 -3 17 3 16 20 -1 17 -3 18 -6 6
-2 -10 -8 -18 -13 -18 -5 0 -7 7 -4 15 4 8 1 15 -6 15 -6 0 -10 -8 -8 -17z"/>
<path d="M1430 1911 c0 -6 5 -11 10 -11 7 0 7 -6 0 -19 -14 -28 -14 -29 30
-36 22 -4 40 -10 40 -13 0 -4 9 -13 21 -20 18 -12 20 -11 17 4 -1 9 -23 24
-48 34 -28 11 -44 23 -42 33 1 8 -5 20 -13 27 -10 9 -15 9 -15 1z"/>
<path d="M775 1868 c3 -32 -1 -47 -15 -60 -27 -25 -33 -22 -25 12 4 19 3 30
-4 30 -6 0 -11 -11 -11 -25 0 -22 -3 -25 -29 -20 -26 4 -30 2 -33 -20 -2 -14
-7 -24 -13 -23 -5 2 -9 7 -7 11 1 5 -2 6 -8 2 -6 -3 -8 -11 -5 -16 10 -15 -24
-22 -40 -9 -11 9 -15 9 -15 1 0 -7 -7 -11 -16 -9 -10 2 -19 -3 -21 -10 -4 -9
1 -10 22 -2 34 13 35 13 35 -7 0 -14 3 -13 23 5 22 20 24 21 40 5 12 -12 17
-13 17 -5 0 7 5 10 10 7 6 -3 10 1 10 10 0 9 -4 14 -9 11 -5 -4 -7 3 -4 14 7
25 24 25 54 0 20 -16 21 -19 7 -20 -12 0 -15 -5 -11 -17 6 -16 5 -17 -12 -3
-10 8 -16 10 -12 3 4 -6 3 -14 -3 -18 -13 -8 -13 -25 0 -25 19 0 60 55 54 72
-6 20 12 25 19 6 2 -7 8 -10 12 -5 5 4 3 13 -3 19 -18 18 -14 28 10 28 17 0
19 3 10 12 -7 7 -12 29 -12 50 0 21 -4 38 -9 38 -5 0 -8 -19 -6 -42z"/>
<path d="M820 1867 c0 -23 4 -36 10 -32 13 8 13 35 0 55 -7 11 -10 5 -10 -23z"/>
<path d="M1835 1860 c-3 -11 -11 -20 -16 -20 -5 0 -9 -5 -9 -11 0 -7 -7 -17
-15 -23 -12 -10 -12 -13 0 -30 14 -19 15 -19 15 7 0 15 5 27 10 27 6 0 10 7
10 15 0 9 9 15 25 15 29 0 31 6 11 26 -19 19 -23 18 -31 -6z"/>
<path d="M855 1848 c-4 -14 1 -36 10 -53 16 -29 16 -29 14 -5 -2 42 0 50 16
50 8 0 15 5 15 11 0 5 -5 7 -10 4 -6 -4 -17 -1 -25 5 -11 9 -15 7 -20 -12z"/>
<path d="M925 1860 c-6 -10 -5 -11 14 -14 5 0 13 -4 17 -8 4 -5 14 -8 23 -8
11 0 10 5 -7 20 -23 22 -38 25 -47 10z"/>
<path d="M2313 1831 c-13 -16 -23 -34 -23 -39 0 -5 -15 -13 -32 -19 -27 -7
-33 -14 -33 -36 1 -15 -3 -27 -7 -27 -4 0 -8 5 -8 10 0 19 -18 10 -23 -11 -3
-12 -10 -18 -16 -14 -14 8 -14 -1 -1 -25 8 -16 6 -18 -15 -15 -14 1 -25 -2
-25 -6 0 -5 7 -9 15 -9 8 0 15 -5 15 -11 0 -7 9 0 20 14 11 14 20 33 20 44 0
15 2 16 10 3 8 -13 12 -11 26 9 15 21 18 21 26 7 10 -17 28 -22 28 -6 0 5 -9
18 -20 28 l-21 19 25 17 c14 9 30 16 37 16 6 0 9 7 6 15 -4 8 -2 17 2 20 5 3
11 -2 15 -10 4 -12 10 -13 30 -3 28 12 26 28 -4 28 -10 0 -20 7 -22 16 -2 12
-9 8 -25 -15z"/>
<path d="M470 1842 c0 -6 -7 -9 -17 -5 -13 5 -15 2 -11 -15 4 -12 2 -22 -3
-22 -4 0 -6 -6 -3 -14 6 -17 -12 -31 -21 -16 -11 18 -35 11 -35 -10 0 -11 -3
-20 -7 -20 -5 0 -13 -11 -20 -25 -9 -20 -8 -25 2 -25 8 0 16 8 19 18 3 9 22
26 41 36 19 11 35 25 35 32 0 17 29 46 40 39 4 -3 6 -15 3 -26 -4 -16 -2 -20
8 -17 8 3 13 13 11 23 -2 10 2 21 9 26 8 4 10 11 6 16 -5 4 -12 1 -18 -7 -8
-13 -12 -12 -24 4 -8 11 -15 15 -15 8z"/>
<path d="M1420 1819 c0 -6 7 -17 15 -25 8 -9 15 -19 15 -23 0 -11 -48 -12 -55
-1 -3 6 -10 10 -16 10 -16 0 14 -38 34 -44 10 -2 16 -9 12 -15 -3 -6 -1 -11 5
-11 7 0 10 7 7 15 -4 9 5 22 22 35 31 22 46 26 36 10 -3 -5 -2 -10 4 -10 17 0
22 19 11 40 -12 22 -32 28 -27 8 4 -21 -30 -20 -36 2 -5 21 -27 28 -27 9z"/>
<path d="M1020 1811 c0 -5 10 -13 23 -19 12 -6 16 -11 10 -11 -7 -1 -13 -6
-13 -12 0 -6 7 -9 15 -5 12 4 15 -6 15 -57 0 -34 -4 -57 -8 -51 -19 28 -83 20
-66 -8 3 -5 12 -4 20 3 10 8 14 8 14 0 0 -6 -5 -11 -11 -11 -6 0 -8 -8 -4 -20
3 -10 1 -29 -6 -42 -9 -16 -9 -23 0 -26 6 -2 11 -13 11 -24 0 -25 23 -48 39
-38 10 5 9 9 -3 13 -9 4 -16 15 -16 26 0 11 -5 21 -11 23 -9 3 -8 18 2 58 l14
55 5 -50 5 -50 23 25 22 24 0 -23 c0 -12 4 -20 9 -17 5 4 12 0 14 -6 6 -14 11
16 8 42 -1 8 7 2 18 -15 17 -25 21 -27 27 -11 4 9 13 15 20 12 9 -3 14 2 14
13 0 11 6 22 13 24 9 4 9 6 -1 6 -7 1 -10 6 -7 12 4 5 8 20 10 32 1 12 6 31
11 42 7 19 7 19 -9 3 -10 -9 -19 -34 -20 -55 -2 -35 -11 -52 -29 -53 -4 0 -3
11 2 25 10 27 3 58 -11 49 -12 -7 -11 3 1 27 8 15 7 19 -5 19 -8 0 -15 7 -15
15 0 14 -3 13 -24 -2 -13 -10 -20 -21 -15 -24 6 -3 6 -16 -1 -33 -12 -34 -12
-36 0 -36 6 0 10 11 10 24 0 24 22 51 33 40 3 -4 2 -15 -4 -26 -8 -15 -7 -22
6 -32 10 -7 14 -18 9 -30 -7 -18 -8 -18 -20 -1 -13 17 -15 17 -32 2 -10 -9
-21 -17 -25 -17 -6 0 -2 118 6 155 2 11 2 14 0 8 -7 -20 -23 -15 -23 7 0 11
-3 20 -7 21 -5 0 -16 2 -25 4 -10 2 -18 0 -18 -4z"/>
<path d="M350 1795 c0 -13 -4 -14 -20 -5 -12 7 -20 7 -20 1 0 -16 18 -23 40
-16 20 6 28 35 10 35 -5 0 -10 -7 -10 -15z"/>
<path d="M560 1789 c0 -15 5 -20 23 -17 12 2 20 8 19 13 -2 6 -8 9 -13 8 -5
-2 -9 2 -9 7 0 6 -4 10 -10 10 -5 0 -10 -9 -10 -21z"/>
<path d="M1590 1802 c0 -4 -10 -8 -21 -9 -26 -2 -33 -8 -24 -23 5 -8 11 -8 21
1 11 9 14 9 14 -1 0 -10 3 -10 15 0 17 14 20 40 5 40 -5 0 -10 -4 -10 -8z"/>
<path d="M2084 1793 c-4 -10 -6 -22 -5 -26 1 -5 -8 -6 -19 -2 -24 8 -26 -7 -3
-26 11 -10 14 -10 9 -1 -7 11 5 17 27 13 5 -1 6 8 2 19 -9 28 1 25 42 -11 19
-16 38 -27 42 -24 3 4 -6 16 -22 27 -15 11 -24 25 -21 30 4 6 2 8 -4 4 -6 -3
-13 -2 -17 4 -9 15 -22 12 -31 -7z"/>
<path d="M1199 1784 c-1 -5 -3 -22 -4 -39 -3 -30 -3 -30 12 -7 20 28 38 28 57
0 16 -22 16 -22 16 -2 0 26 -41 65 -47 46 -4 -10 -8 -10 -19 -1 -8 6 -15 8
-15 3z"/>
<path d="M1752 1779 c10 -5 15 -16 12 -24 -7 -18 12 -20 22 -3 7 11 -21 38
-40 38 -6 0 -3 -5 6 -11z"/>
<path d="M1937 1769 c-4 -15 -2 -19 8 -15 20 7 25 -17 6 -31 -13 -10 -18 -6
-28 20 l-12 32 2 -30 c1 -16 7 -41 14 -55 9 -19 10 -26 0 -32 -6 -4 -9 -10 -5
-13 11 -11 58 26 58 46 0 11 5 19 10 19 6 0 3 11 -6 25 -10 15 -12 25 -5 25 6
0 11 5 11 11 0 5 -5 7 -10 4 -6 -4 -17 -2 -24 4 -11 9 -15 7 -19 -10z"/>
<path d="M840 1761 c0 -11 -4 -23 -10 -26 -5 -3 -10 1 -10 9 0 26 -20 18 -38
-14 -9 -16 -20 -30 -24 -30 -5 0 -8 -11 -8 -25 0 -14 4 -25 9 -25 6 0 9 -9 8
-19 -1 -16 -7 -19 -28 -14 -15 3 -30 0 -33 -6 -5 -7 2 -11 19 -11 14 0 36 -7
50 -16 20 -13 23 -13 21 -1 -1 8 -8 22 -15 31 -8 10 -9 16 -3 16 6 0 14 -4 17
-10 3 -5 11 -10 18 -10 6 0 -4 13 -23 29 -32 27 -33 29 -17 45 9 10 17 24 17
33 0 10 6 13 16 9 9 -3 19 -6 24 -6 5 0 11 -17 13 -37 2 -23 4 -12 5 30 1 37
0 67 -3 67 -3 0 -5 -9 -5 -19z"/>
<path d="M1607 1764 c-15 -15 -6 -32 13 -27 12 3 19 10 17 16 -4 14 -21 19
-30 11z"/>
<path d="M1713 1751 c-3 -12 -12 -21 -19 -21 -15 0 -16 -6 -5 -34 6 -16 10
-13 29 22 13 26 18 44 11 48 -6 3 -13 -3 -16 -15z"/>
<path d="M270 1751 c0 -6 5 -11 11 -11 5 0 7 -4 4 -10 -7 -11 23 -60 36 -60 5
0 2 14 -6 30 -15 29 -15 31 7 40 13 5 17 9 8 10 -8 0 -25 3 -37 6 -14 4 -23 2
-23 -5z"/>
<path d="M1864 1743 c4 -9 1 -21 -5 -29 -27 -32 19 -72 49 -42 19 19 14 26
-13 20 -18 -3 -25 0 -25 12 0 9 4 16 9 16 19 0 19 28 0 33 -16 4 -19 2 -15
-10z"/>
<path d="M1351 1720 c-6 -17 -15 -29 -20 -26 -5 3 -12 -1 -15 -10 -6 -15 -8
-15 -26 1 -19 17 -50 15 -50 -5 0 -10 2 -11 36 -15 12 -1 26 -5 33 -9 6 -4 17
-1 24 6 15 14 39 79 33 85 -2 2 -9 -10 -15 -27z"/>
<path d="M1491 1740 c-17 -10 -8 -26 18 -33 14 -3 17 0 14 14 -7 25 -16 30
-32 19z"/>
<path d="M1557 1744 c-4 -4 -7 -15 -7 -25 0 -21 47 -32 54 -13 3 8 -1 14 -9
14 -8 0 -18 7 -23 15 -4 9 -11 12 -15 9z"/>
<path d="M1802 1738 c-5 -8 -6 -22 -1 -33 4 -11 8 -16 8 -11 1 5 9 2 18 -5 15
-12 16 -12 10 4 -3 9 -2 17 3 17 5 0 8 9 7 20 -1 11 -5 20 -10 20 -5 0 -7 -6
-4 -14 3 -8 0 -17 -7 -19 -10 -4 -12 1 -9 14 6 22 0 25 -15 7z"/>
<path d="M2014 1715 c-19 -29 -18 -30 14 -39 18 -6 22 -3 22 13 0 13 -7 21
-17 22 -16 0 -16 1 1 8 13 5 16 10 8 15 -6 4 -18 -4 -28 -19z"/>
<path d="M2093 1724 c-3 -8 -11 -13 -18 -10 -7 2 -12 -2 -11 -9 3 -20 13 -28
39 -32 28 -4 61 35 45 54 -15 18 -47 16 -55 -3z"/>
<path d="M1381 1713 c0 -13 -5 -23 -11 -23 -5 0 -10 -7 -10 -15 0 -8 6 -12 14
-9 10 4 14 -1 13 -15 -1 -14 -8 -21 -22 -21 -17 0 -18 2 -5 11 13 9 13 10 0 6
-18 -4 -21 -33 -3 -30 7 2 10 -4 7 -12 -8 -20 -14 -19 -40 6 -19 18 -22 18
-28 4 -4 -11 -2 -15 6 -13 7 3 22 -6 32 -20 l20 -25 8 22 c7 21 9 21 24 6 18
-18 35 -16 42 5 3 9 -1 11 -12 7 -15 -6 -15 -4 0 19 10 14 21 21 25 17 10 -10
0 -83 -12 -84 -5 -1 -14 -2 -19 -3 -6 0 -14 -6 -18 -12 -4 -7 -16 -14 -27 -16
-18 -4 -17 -6 8 -16 15 -7 30 -19 33 -27 4 -8 12 -15 20 -15 19 0 18 16 -1 24
-22 8 -19 46 4 46 10 0 26 11 35 25 9 14 23 25 30 25 11 0 10 -7 -3 -34 -9
-18 -20 -31 -25 -28 -5 3 -6 -3 -3 -12 4 -10 7 -22 7 -27 0 -5 8 -9 18 -9 14
0 15 2 2 10 -12 7 -12 10 -1 10 8 0 11 6 7 16 -4 10 3 25 19 40 30 28 45 31
45 9 0 -13 4 -14 20 -5 11 6 18 16 14 22 -4 6 3 18 15 27 22 16 21 51 -1 51
-5 0 -7 -4 -4 -9 9 -14 -5 -41 -21 -41 -8 0 -12 -4 -9 -9 3 -5 -8 -11 -24 -13
-34 -5 -41 7 -10 17 11 3 20 10 20 15 0 14 -39 7 -44 -7 -3 -7 -13 -13 -22
-13 -10 0 -14 3 -11 6 4 4 -2 14 -12 23 -10 9 -22 31 -26 50 l-7 34 -19 -24
c-19 -26 -24 -21 -32 31 -4 23 -4 23 -6 3z"/>
<path d="M1464 1701 c13 -15 14 -20 4 -24 -10 -4 -10 -8 2 -16 8 -6 11 -11 7
-11 -5 0 -1 -7 8 -16 12 -13 19 -14 28 -5 8 8 7 11 -4 11 -9 0 -16 6 -16 14 0
8 9 14 19 13 10 -1 18 -7 18 -14 0 -7 5 -13 10 -13 6 0 10 9 10 20 0 14 -7 20
-23 20 -12 0 -30 9 -40 20 -9 11 -22 20 -28 20 -7 0 -5 -8 5 -19z"/>
<path d="M230 1700 c0 -6 -8 -14 -17 -17 -31 -12 -43 -35 -26 -51 8 -8 17 -11
21 -8 3 4 0 11 -7 15 -11 7 -9 12 9 21 20 11 21 10 15 -9 -4 -12 -2 -21 4 -21
6 0 11 -7 11 -16 0 -13 -7 -15 -30 -10 -18 3 -29 2 -25 -3 3 -5 -4 -26 -16
-45 -19 -32 -19 -36 -4 -36 9 0 25 5 36 11 18 9 19 12 5 22 -13 10 -13 14 0
25 11 11 14 10 14 -3 0 -8 5 -15 10 -15 6 0 10 9 10 20 0 10 9 24 20 30 17 9
20 8 20 -13 0 -12 -5 -28 -12 -35 -9 -9 -9 -12 0 -12 7 0 15 6 18 14 3 8 13
17 22 21 9 3 13 3 9 -1 -4 -4 -2 -13 4 -20 7 -9 7 -19 0 -33 -6 -11 -11 -26
-10 -33 0 -7 5 -1 11 15 5 15 16 27 24 27 8 0 14 7 14 15 0 8 -7 15 -15 15 -8
0 -15 6 -15 13 0 20 -42 53 -63 49 -14 -3 -17 2 -13 23 3 16 -1 33 -9 42 -9 8
-15 10 -15 3z"/>
<path d="M400 1701 c0 -5 -3 -17 -7 -27 -4 -12 -2 -15 8 -12 8 3 14 11 14 18
0 7 9 16 20 21 17 7 16 8 -7 8 -16 1 -28 -3 -28 -8z"/>
<path d="M565 1679 c7 -20 0 -23 -42 -19 -17 1 -23 -4 -22 -17 0 -10 3 -13 5
-7 6 15 64 5 71 -12 3 -8 12 -14 19 -14 12 0 12 4 -1 24 -11 16 -13 26 -6 31
17 10 13 22 -9 28 -17 4 -20 2 -15 -14z"/>
<path d="M1745 1691 c-3 -5 -1 -13 5 -16 8 -5 8 -11 0 -20 -15 -18 -4 -71 16
-79 18 -7 19 24 0 50 -8 10 -11 23 -7 29 17 22 20 45 6 45 -7 0 -16 -4 -20 -9z"/>
<path d="M2244 1665 c-12 -8 -24 -12 -26 -9 -3 3 -8 -2 -12 -11 -4 -11 3 -19
22 -26 42 -17 72 -18 72 -3 0 8 6 11 15 8 9 -4 15 0 15 9 0 20 -23 16 -51 -9
l-22 -19 6 38 c3 20 5 37 4 37 -2 0 -12 -7 -23 -15z"/>
<path d="M670 1661 c-8 -6 -18 -7 -22 -5 -4 3 -8 -2 -8 -10 0 -9 5 -16 10 -16
6 0 10 -9 10 -19 0 -10 7 -21 15 -25 8 -3 15 -10 15 -16 0 -6 -4 -8 -10 -5
-16 10 -12 -11 5 -25 9 -7 15 -20 13 -29 -4 -25 11 -41 40 -41 25 0 25 -1 6
-15 -14 -11 -15 -14 -4 -14 20 1 58 17 41 18 -10 1 -11 4 -2 15 10 12 8 13 -9
9 -12 -3 -29 2 -40 12 -21 19 -27 45 -10 45 6 0 10 5 10 11 0 8 -6 7 -17 -2
-15 -13 -16 -11 -9 14 4 19 3 26 -4 22 -14 -8 -13 28 1 42 6 6 19 9 28 6 13
-4 13 -3 2 5 -10 7 -22 7 -38 -1 -30 -13 -42 -1 -17 18 21 16 17 20 -6 6z"/>
<path d="M1837 1645 c-7 -17 1 -25 24 -25 12 0 16 5 13 14 -8 20 -31 27 -37
11z"/>
<path d="M464 1626 c-7 -14 -8 -30 -3 -38 7 -10 9 -8 9 7 0 17 2 17 10 5 7
-11 9 -6 7 17 -2 39 -8 41 -23 9z"/>
<path d="M1999 1625 c-1 -16 -1 -38 -1 -48 1 -10 -3 -15 -8 -12 -6 3 -10 2
-10 -4 0 -18 18 -21 47 -10 l28 11 -27 10 c-32 11 -38 33 -8 25 11 -3 20 -1
20 4 0 5 -4 9 -8 9 -5 0 -14 10 -20 23 -10 21 -11 21 -13 -8z"/>
<path d="M2060 1607 c0 -26 3 -47 8 -47 10 0 9 76 -1 86 -4 4 -7 -14 -7 -39z"/>
<path d="M2425 1636 c-5 -11 -3 -21 5 -26 18 -11 5 -40 -19 -40 -11 0 -23 -4
-26 -10 -3 -5 -1 -10 4 -10 18 0 12 -18 -6 -23 -17 -4 -17 -5 0 -6 9 0 17 -8
17 -16 0 -10 10 -15 30 -15 17 0 30 -5 30 -11 0 -6 7 -9 15 -5 18 6 20 -5 4
-21 -6 -6 -18 -9 -25 -6 -17 6 -19 -13 -3 -23 8 -5 8 -9 -1 -14 -8 -5 -1 -11
19 -18 32 -11 34 -9 32 19 -1 9 7 19 19 22 11 3 20 12 20 21 0 20 -16 21 -24
1 -3 -8 -11 -15 -18 -15 -10 0 -9 3 1 9 12 8 12 12 2 25 -7 8 -10 24 -7 34 7
22 -2 52 -15 52 -5 0 -9 -11 -9 -25 0 -15 -6 -25 -14 -25 -8 0 -23 -2 -33 -5
-11 -3 -9 -1 5 6 27 15 29 29 2 29 -11 0 -20 5 -20 10 0 10 14 14 39 10 8 -1
11 4 8 12 -3 8 4 20 14 26 26 17 24 32 -5 32 -13 0 -26 6 -29 13 -3 8 -7 6
-12 -7z"/>
<path d="M930 1630 c0 -5 -9 -10 -21 -10 l-20 0 21 -27 c12 -16 17 -29 11 -31
-6 -2 -11 -8 -11 -14 0 -6 9 -3 20 7 13 12 17 22 10 30 -5 6 -7 21 -3 33 3 12
3 22 -1 22 -3 0 -6 -4 -6 -10z"/>
<path d="M963 1601 c-2 -31 1 -39 13 -34 17 6 19 23 2 23 -7 0 -5 5 5 11 14 8
16 14 6 25 -18 22 -25 17 -26 -25z"/>
<path d="M2379 1613 c0 -16 -3 -23 -5 -17 -3 6 -15 9 -28 7 -26 -5 -31 -43 -7
-51 10 -3 12 0 7 13 -5 14 -2 16 16 12 13 -3 31 0 41 8 16 11 16 16 5 34 -18
29 -28 26 -29 -6z"/>
<path d="M1640 1620 c0 -12 41 -30 52 -23 4 2 5 -4 1 -14 -5 -17 -5 -17 12 -1
23 21 10 41 -21 34 -14 -4 -24 -2 -24 4 0 5 -4 10 -10 10 -5 0 -10 -5 -10 -10z"/>
<path d="M1245 1611 c6 -11 4 -13 -8 -8 -24 9 -21 -10 2 -23 11 -5 22 -10 24
-10 10 0 1 30 -13 43 -10 10 -11 9 -5 -2z"/>
<path d="M400 1595 c0 -8 6 -20 13 -27 11 -10 11 -16 0 -38 -16 -31 -17 -57
-2 -66 9 -5 10 1 5 20 -4 15 -2 26 4 26 5 0 10 7 10 16 0 12 3 14 13 6 15 -13
20 -59 7 -67 -13 -8 -13 -25 0 -25 5 0 12 11 16 25 3 14 10 23 14 20 5 -3 11
-1 15 5 3 5 0 10 -8 10 -14 0 -28 27 -31 60 -1 8 -8 14 -15 12 -7 -1 -15 7
-18 18 -6 23 -23 27 -23 5z"/>
<path d="M127 1579 c19 -20 23 -20 37 -6 14 14 14 16 0 21 -9 3 -25 6 -37 6
l-21 0 21 -21z"/>
<path d="M864 1568 c0 -13 9 -24 18 -26 14 -3 15 0 5 22 -15 32 -25 33 -23 4z"/>
<path d="M535 1560 c-3 -5 -12 -7 -20 -3 -10 3 -15 -1 -15 -15 0 -11 7 -23 16
-26 11 -4 15 -2 11 8 -3 8 1 20 9 26 10 9 14 9 14 1 0 -6 7 -11 15 -11 20 0
19 16 -1 24 -20 8 -22 8 -29 -4z"/>
<path d="M776 1559 c3 -5 -2 -9 -10 -9 -8 0 -20 -9 -26 -20 -12 -22 -1 -27 19
-7 11 10 14 10 18 0 3 -7 12 -13 20 -13 13 0 13 3 3 15 -17 20 -5 32 15 15 19
-16 19 -39 0 -46 -22 -9 -18 -34 10 -60 17 -15 25 -19 25 -9 0 7 -9 17 -21 20
-23 8 -20 31 5 27 10 -2 16 4 16 18 0 13 7 20 20 20 11 0 20 5 20 11 0 7 -10
9 -25 5 -17 -4 -25 -2 -25 7 0 8 -16 18 -35 24 -19 6 -33 7 -29 2z"/>
<path d="M1800 1563 c0 -12 37 -43 44 -36 10 11 6 34 -4 28 -6 -4 -17 -1 -25
5 -8 7 -15 8 -15 3z"/>
<path d="M1720 1550 c0 -5 4 -10 9 -10 5 0 7 -9 4 -20 -7 -27 6 -25 16 3 5 14
4 25 -3 29 -16 11 -26 10 -26 -2z"/>
<path d="M2093 1549 c-13 -5 -23 -15 -23 -24 0 -8 -7 -15 -16 -15 -8 0 -12 5
-9 10 3 6 0 10 -9 10 -13 0 -13 -4 0 -30 9 -16 19 -30 24 -30 10 0 20 25 20
51 0 12 5 16 14 13 8 -3 17 0 21 6 10 16 3 19 -22 9z"/>
<path d="M1125 1522 c-1 -18 5 -28 15 -29 18 -2 43 44 29 53 -5 3 -9 0 -9 -7
0 -10 -3 -10 -12 -1 -18 18 -23 15 -23 -16z"/>
<path d="M1615 1542 c-11 -2 -24 -10 -28 -18 -11 -19 -34 -18 -45 2 -8 14 -10
13 -15 -5 -4 -16 -1 -21 15 -21 11 0 22 -8 25 -20 3 -11 9 -20 13 -20 4 0 19
9 33 20 14 11 30 20 35 20 6 0 14 5 17 10 11 18 -21 11 -45 -10 -12 -11 -27
-17 -33 -13 -10 6 -2 13 40 39 22 14 16 22 -12 16z"/>
<path d="M2246 1543 c-25 -7 -61 -41 -53 -50 4 -3 13 0 20 9 6 9 24 18 40 22
15 4 27 11 27 16 0 10 -3 11 -34 3z"/>
<path d="M102 1520 c-8 -14 -9 -20 -1 -20 6 0 9 -9 6 -20 -7 -28 24 -27 49 2
18 20 18 21 1 15 -10 -4 -16 -3 -12 2 7 13 -5 41 -19 41 -6 0 -17 -9 -24 -20z"/>
<path d="M256 1495 c-8 -19 -20 -35 -25 -35 -6 0 -11 -9 -11 -19 0 -15 5 -18
23 -13 20 5 21 4 8 -12 -19 -22 -13 -25 34 -17 34 5 40 10 43 34 2 18 9 27 21
27 34 0 41 23 15 43 -21 15 -24 16 -24 2 0 -8 5 -15 11 -15 5 0 7 -5 4 -11 -4
-6 -13 -8 -21 -5 -10 4 -14 -2 -14 -19 0 -20 -5 -25 -24 -25 -13 0 -29 7 -36
15 -10 11 -7 19 13 37 13 13 22 29 20 36 -8 22 -22 13 -37 -23z"/>
<path d="M196 1512 c-3 -6 -2 -13 4 -17 16 -10 11 -28 -6 -21 -19 7 -44 -10
-44 -29 0 -10 6 -11 29 -2 39 14 54 40 37 62 -8 12 -15 14 -20 7z"/>
<path d="M646 1505 c-3 -8 -3 -22 0 -30 4 -8 1 -15 -6 -15 -7 0 -4 -7 6 -17
11 -11 13 -18 5 -21 -15 -5 -14 -22 2 -22 12 1 57 34 57 43 0 2 -11 2 -26 -1
-23 -4 -24 -2 -18 22 4 16 2 26 -5 26 -6 0 -8 7 -5 15 4 8 4 15 1 15 -3 0 -7
-7 -11 -15z"/>
<path d="M1231 1508 c4 -29 -2 -40 -17 -34 -16 6 -44 -15 -44 -33 0 -15 -17
-14 -23 2 -2 6 -8 9 -12 4 -5 -4 1 -16 13 -27 15 -15 22 -33 22 -60 0 -45 11
-56 40 -38 19 12 24 10 46 -15 l24 -28 0 30 c0 16 6 32 13 34 6 3 -3 3 -21 0
-23 -4 -38 0 -52 12 -12 10 -20 13 -20 7 0 -7 -4 -12 -10 -12 -5 0 -10 17 -10
39 0 30 5 42 25 55 35 23 48 20 63 -14 8 -17 17 -28 22 -25 5 3 11 -1 13 -7 3
-8 6 -6 6 5 1 9 8 17 17 17 11 0 14 5 10 16 -3 9 -6 20 -6 25 0 19 -19 8 -22
-13 -4 -25 -28 -37 -28 -14 0 9 -8 23 -19 32 -11 10 -16 24 -14 35 3 11 0 19
-6 19 -7 0 -11 -6 -10 -12z"/>
<path d="M1835 1500 c-3 -5 -12 -7 -20 -3 -8 3 -15 0 -15 -6 0 -7 -6 -11 -12
-9 -7 1 -24 -2 -37 -6 -15 -5 -26 -4 -31 4 -4 6 -20 10 -35 8 -33 -4 -47 -28
-16 -28 12 0 21 5 21 10 0 6 5 10 10 10 6 0 10 -15 10 -32 0 -18 4 -28 8 -23
7 11 58 45 66 45 3 0 3 -6 0 -14 -4 -10 0 -14 12 -12 10 2 20 9 22 17 3 8 11
22 20 32 8 9 12 17 9 17 -3 0 -8 -4 -12 -10z"/>
<path d="M1947 1496 c-11 -9 -20 -31 -22 -57 -2 -26 -1 -38 4 -30 6 9 11 10
15 2 4 -6 0 -14 -8 -17 -9 -3 -16 -10 -16 -15 0 -15 27 -10 45 7 15 16 15 19
-11 39 -25 20 -27 25 -15 39 7 9 22 16 33 16 11 0 18 5 16 12 -6 18 -21 19
-41 4z"/>
<path d="M956 1484 c-3 -9 -6 -23 -6 -32 0 -15 2 -15 10 -2 8 13 10 12 10 -2
0 -10 5 -18 11 -18 6 0 8 7 5 16 -3 9 -6 24 -6 35 0 23 -15 25 -24 3z"/>
<path d="M2098 1482 c7 -5 10 -16 6 -25 -4 -13 -2 -16 9 -12 11 5 16 -3 21
-29 7 -35 19 -46 30 -27 3 5 -1 14 -9 21 -8 7 -15 21 -15 31 0 20 -25 49 -43
49 -8 0 -8 -3 1 -8z"/>
<path d="M2213 1479 c-14 -5 -23 -17 -23 -29 0 -11 -7 -20 -15 -20 -8 0 -15
-4 -15 -10 0 -11 11 -13 34 -4 9 3 16 15 16 25 0 12 7 19 20 19 11 0 20 4 20
9 0 16 -13 19 -37 10z"/>
<path d="M2345 1481 c-3 -6 -24 -11 -46 -11 -42 0 -46 -5 -24 -34 17 -22 20
-56 5 -56 -5 0 -14 8 -19 18 -9 15 -10 15 -11 1 0 -22 32 -49 37 -32 4 10 10
10 25 2 11 -6 17 -16 15 -24 -4 -9 1 -11 14 -8 26 7 24 18 -6 31 -32 15 -61
82 -35 82 6 0 10 -7 10 -15 0 -8 5 -15 10 -15 6 0 10 7 10 16 0 9 8 23 17 30
10 7 15 15 11 19 -3 3 -9 2 -13 -4z"/>
<path d="M560 1471 c0 -7 -4 -10 -9 -6 -14 8 -32 -30 -24 -51 4 -12 3 -15 -5
-10 -16 10 -15 -5 2 -27 19 -24 30 -6 21 34 -5 23 -3 34 12 44 10 7 15 17 10
21 -4 4 -7 2 -7 -5z"/>
<path d="M1844 1465 c3 -9 0 -15 -9 -15 -8 0 -15 -7 -15 -15 0 -9 -10 -26 -21
-38 l-22 -22 6 23 c3 15 1 22 -9 22 -8 0 -14 5 -14 11 0 5 -5 7 -10 4 -6 -4
-8 -15 -5 -26 4 -11 2 -19 -4 -19 -6 0 -11 5 -11 10 0 6 -5 10 -10 10 -6 0 -8
-11 -4 -27 7 -25 6 -27 -9 -14 -15 12 -17 10 -17 -15 0 -22 3 -25 10 -14 5 8
12 11 16 8 3 -4 15 2 27 12 21 21 37 18 37 -6 0 -12 4 -12 20 -2 11 7 21 19
24 28 2 9 4 6 5 -7 1 -25 16 -38 26 -23 10 16 23 12 30 -10 3 -11 13 -20 22
-20 10 0 14 -6 10 -19 -3 -14 0 -17 14 -14 17 5 17 7 3 29 -9 13 -13 27 -10
33 3 5 -3 7 -14 4 -11 -3 -20 0 -20 6 0 6 5 11 12 11 6 0 9 2 7 5 -3 2 -20 1
-37 -4 -28 -8 -32 -7 -32 9 0 10 4 21 10 25 5 3 7 12 3 20 -3 9 1 15 11 15 14
0 14 3 4 20 -15 23 -33 27 -24 5z"/>
<path d="M1984 1466 c-7 -18 13 -56 29 -56 7 0 6 4 -3 10 -8 5 -11 10 -6 10 5
0 3 7 -4 15 -9 10 -9 15 -1 15 6 0 11 5 11 10 0 15 -20 12 -26 -4z"/>
<path d="M600 1435 c0 -16 -7 -28 -19 -33 -13 -5 -16 -12 -11 -27 7 -19 9 -18
19 8 6 15 15 27 21 27 13 0 13 37 0 45 -6 4 -10 -5 -10 -20z"/>
<path d="M1016 1444 c-8 -21 1 -34 18 -28 8 3 17 1 21 -5 3 -6 11 -11 17 -11
7 0 6 5 -2 15 -6 8 -8 20 -4 26 5 9 2 10 -9 6 -10 -3 -17 -2 -17 3 0 16 -17
11 -24 -6z"/>
<path d="M1537 1454 c-3 -4 5 -15 18 -26 28 -22 32 -38 10 -38 -14 0 -13 -3 1
-25 9 -14 25 -25 35 -25 11 0 22 -7 25 -15 4 -8 10 -15 15 -15 4 0 6 7 2 16
-5 13 -2 15 16 9 20 -6 21 -5 10 13 -10 16 -16 18 -29 9 -22 -13 -50 -3 -50
19 0 13 8 15 39 12 43 -4 67 13 56 40 -6 15 -8 15 -17 -4 -11 -23 -78 -32 -78
-10 0 12 -31 46 -42 46 -2 0 -8 -3 -11 -6z"/>
<path d="M390 1437 c0 -9 -5 -17 -11 -17 -5 0 -7 -4 -4 -10 3 -5 1 -10 -6 -10
-6 0 -9 8 -6 20 7 25 3 25 -23 -2 -11 -12 -20 -31 -20 -41 0 -19 1 -19 18 -4
23 21 32 21 32 2 0 -21 20 -19 21 3 0 11 2 12 6 4 4 -10 8 -10 19 -1 11 9 14
8 14 -5 0 -10 5 -14 10 -11 6 3 10 1 10 -5 0 -7 -8 -9 -20 -5 -11 3 -20 2 -20
-3 0 -5 10 -12 23 -16 18 -5 19 -8 7 -15 -8 -6 -11 -13 -7 -17 12 -12 48 27
37 41 -5 6 -7 15 -3 18 11 12 23 8 23 -8 0 -8 5 -15 10 -15 13 0 13 3 -4 34
-11 23 -15 24 -20 10 -6 -16 -8 -15 -22 5 -9 13 -22 20 -31 17 -8 -3 -12 -2
-9 2 2 4 -2 16 -10 27 -12 16 -14 17 -14 2z"/>
<path d="M1500 1427 c0 -11 4 -15 12 -11 11 7 9 -10 -6 -46 -9 -21 45 -62 65
-49 11 6 6 11 -18 20 -37 13 -37 12 -21 39 11 17 9 23 -10 42 -19 20 -22 20
-22 5z"/>
<path d="M2062 1428 c-14 -14 -16 -35 -3 -42 4 -3 13 6 19 19 12 27 2 41 -16
23z"/>
<path d="M712 1414 c-12 -8 -26 -23 -31 -33 -9 -15 -6 -18 20 -18 27 0 43 17
17 17 -7 1 -3 9 10 19 37 32 25 44 -16 15z"/>
<path d="M1350 1406 c0 -19 -4 -27 -13 -23 -9 3 -12 -5 -9 -29 5 -38 17 -52
26 -29 3 8 1 17 -5 21 -6 3 2 16 17 29 15 13 31 22 36 19 4 -3 8 0 8 5 0 6 -8
11 -18 11 -10 0 -23 5 -30 12 -9 9 -12 6 -12 -16z"/>
<path d="M2398 1423 c-10 -3 -18 -9 -18 -14 0 -5 -7 -9 -15 -9 -17 0 -21 -16
-5 -22 5 -1 13 -18 16 -37 6 -29 5 -33 -9 -28 -10 4 -17 2 -17 -4 0 -6 9 -9
20 -6 12 3 24 -1 29 -11 9 -15 11 -15 28 0 11 11 27 15 40 12 21 -6 21 -4 10
20 -12 26 -27 35 -27 15 0 -6 -7 -9 -14 -6 -10 4 -13 1 -9 -9 6 -17 -8 -19
-25 -2 -19 19 -14 65 9 81 22 16 15 26 -13 20z"/>
<path d="M908 1398 c-6 -18 18 -40 39 -36 9 2 19 10 21 18 4 13 3 13 -11 2
-19 -16 -38 -8 -30 13 3 8 1 15 -5 15 -6 0 -12 -6 -14 -12z"/>
<path d="M2225 1399 c-4 -6 -13 -8 -20 -5 -9 3 -15 -4 -17 -17 -2 -17 -9 -21
-30 -19 -14 1 -29 -2 -32 -7 -8 -12 4 -41 16 -41 6 0 8 7 5 15 -4 8 -1 17 5
21 6 4 8 3 4 -4 -4 -7 3 -9 21 -6 36 7 39 10 51 44 11 30 9 39 -3 19z"/>
<path d="M1421 1384 c-7 -9 -10 -18 -6 -22 3 -3 10 0 15 8 9 14 14 7 11 -13
-1 -5 9 -7 21 -5 24 3 40 48 18 48 -7 0 -10 -7 -6 -15 7 -19 -13 -20 -28 -1
-10 13 -13 13 -25 0z"/>
<path d="M992 1375 c-7 -8 -9 -15 -3 -15 17 0 22 -33 6 -50 -16 -18 -20 -40
-7 -40 16 0 32 41 30 80 -1 43 -6 47 -26 25z"/>
<path d="M2511 1364 c-11 -13 -15 -13 -22 -3 -4 7 -11 10 -15 6 -10 -10 13
-33 47 -47 24 -10 35 -10 57 1 l27 13 -27 4 c-20 2 -28 9 -28 23 0 23 -20 24
-39 3z"/>
<path d="M840 1361 c13 -9 13 -11 0 -11 -13 0 -13 -1 0 -11 13 -8 12 -12 -7
-26 -13 -8 -23 -22 -23 -29 0 -11 -4 -10 -19 3 -20 16 -20 17 1 35 18 15 18
18 5 18 -10 0 -17 -4 -17 -9 0 -5 -10 -11 -22 -13 -23 -3 -23 -3 4 -27 15 -13
25 -28 21 -34 -3 -5 4 -4 16 2 20 11 78 4 66 -8 -4 -3 -10 -6 -15 -6 -11 0
-60 -72 -60 -88 1 -7 8 0 16 16 8 15 19 27 24 27 6 0 10 7 10 16 0 9 6 14 13
11 13 -5 33 17 35 38 1 6 -10 9 -23 7 -30 -4 -34 20 -7 40 17 13 26 48 12 48
-5 0 -17 3 -27 6 -15 5 -15 4 -3 -5z"/>
<path d="M2049 1368 c-1 -2 -2 -19 -3 -39 -2 -26 2 -39 16 -48 11 -7 18 -7 18
-1 0 5 -4 10 -10 10 -17 0 -11 38 7 48 14 9 14 11 -5 21 -12 7 -22 10 -23 9z"/>
<path d="M242 1344 c-13 -14 1 -29 18 -19 6 3 10 3 10 -2 0 -4 -12 -14 -27
-21 -19 -8 -23 -8 -15 0 8 8 5 14 -15 25 -32 17 -36 16 -29 -2 3 -10 -1 -15
-12 -15 -14 0 -12 -4 8 -20 l25 -20 -32 5 c-20 3 -33 1 -33 -6 0 -6 -8 -8 -20
-4 -11 4 -20 2 -20 -4 0 -6 5 -11 10 -11 18 0 10 -18 -10 -23 -11 -3 -20 -10
-20 -16 0 -12 23 -14 57 -5 19 5 21 10 12 25 -12 23 -1 24 25 4 22 -16 51 -20
42 -6 -8 12 18 21 43 14 33 -8 36 -39 7 -74 -28 -32 -29 -38 -20 -63 8 -20 24
-11 24 15 0 10 5 19 10 19 6 0 10 -11 10 -25 0 -17 4 -23 14 -19 8 3 17 0 22
-7 4 -7 3 -10 -2 -6 -6 3 -16 1 -24 -4 -13 -8 -12 -11 3 -20 9 -5 17 -19 17
-31 0 -17 2 -18 15 -8 9 7 13 20 10 28 -3 9 0 12 9 9 9 -4 17 1 21 13 8 24 65
46 65 25 0 -9 -6 -12 -15 -9 -10 4 -15 0 -15 -13 0 -10 -5 -24 -12 -31 -9 -9
-9 -12 0 -12 6 0 9 -7 6 -15 -4 -8 -1 -15 5 -15 6 0 11 -9 11 -20 0 -24 15
-27 24 -4 3 8 10 13 15 9 5 -3 12 -1 16 4 3 5 -3 14 -12 20 -10 6 -12 11 -5
11 6 0 12 9 12 21 0 12 -5 19 -12 17 -7 -3 -13 -10 -13 -16 0 -18 -20 -18 -23
1 -2 10 9 22 30 33 31 16 32 17 10 25 -31 12 -28 28 6 25 22 -3 28 -9 30 -32
2 -16 8 -33 14 -39 7 -7 9 -1 6 18 -3 15 -2 27 2 27 10 0 60 -48 60 -57 0 -9
-28 -15 -72 -16 -31 0 -38 -24 -10 -34 9 -3 25 -13 35 -21 9 -8 20 -12 24 -9
4 4 -2 14 -13 23 -18 15 -18 15 10 9 25 -5 28 -4 18 8 -10 12 -9 16 6 19 15 4
18 12 14 37 -3 20 0 31 8 31 7 0 10 -7 6 -15 -3 -8 -2 -15 3 -15 5 0 11 9 14
20 6 23 -21 28 -42 8 -11 -11 -14 -10 -18 0 -3 6 -9 10 -14 7 -4 -3 -11 6 -15
20 -4 16 -12 24 -20 21 -7 -3 -16 -1 -19 4 -3 5 -12 7 -19 4 -8 -3 -22 5 -31
18 -15 20 -16 20 -11 3 7 -23 -8 -53 -18 -37 -4 6 -13 9 -21 5 -11 -4 -15 2
-15 21 0 16 -6 26 -15 26 -21 0 -19 -40 2 -55 14 -10 15 -16 5 -27 -6 -8 -9
-18 -5 -22 4 -4 0 -4 -9 -1 -11 4 -18 20 -20 43 -3 32 -6 37 -25 35 -17 -2
-23 2 -23 17 0 15 7 20 25 20 14 0 25 6 25 13 0 8 4 7 10 -3 7 -11 8 -6 4 18
-5 25 -3 32 10 32 9 0 16 -8 16 -20 0 -13 5 -18 15 -14 12 5 13 10 4 20 -9 11
-8 14 4 14 21 0 26 19 13 52 -7 19 -17 28 -33 28 -13 0 -23 5 -23 10 0 13 -32
9 -42 -5 -5 -6 -18 -4 -36 6 -23 13 -30 13 -40 3z m138 -29 c0 5 6 0 14 -10
17 -24 10 -41 -10 -24 -8 6 -14 8 -14 3 -1 -15 -30 29 -30 44 0 12 4 11 20 -3
11 -10 20 -14 20 -10z m-61 -5 c4 0 13 -12 20 -26 10 -22 9 -31 -4 -50 -20
-31 -31 -30 -39 2 -6 23 -11 25 -49 22 -23 -2 -48 -7 -55 -12 -19 -11 -14 5 6
20 9 7 27 14 39 14 13 0 28 9 35 20 7 11 19 18 26 15 8 -3 17 -5 21 -5z"/>
<path d="M631 1346 c-15 -18 13 -30 37 -16 16 9 15 9 -1 10 -10 0 -15 5 -12
10 9 15 -11 12 -24 -4z"/>
<path d="M1090 1348 c0 -10 5 -18 10 -18 6 0 10 -7 10 -16 0 -11 -5 -14 -16
-10 -9 4 -23 1 -30 -5 -7 -6 -17 -8 -23 -5 -5 3 -7 -3 -4 -14 4 -16 9 -18 19
-10 7 6 26 12 42 12 21 1 29 5 25 14 -8 21 14 17 37 -6 13 -13 20 -16 20 -7 0
8 -12 20 -27 28 -16 8 -36 23 -45 34 -16 18 -17 18 -18 3z"/>
<path d="M1964 1335 c-3 -13 -4 -30 -1 -37 3 -7 6 0 6 15 1 25 3 27 22 17 19
-11 20 -10 9 9 -14 28 -28 26 -36 -4z"/>
<path d="M515 1331 c-3 -12 -13 -21 -21 -21 -8 0 -17 -6 -20 -14 -3 -9 -12
-12 -22 -8 -14 5 -15 4 -2 -10 14 -15 16 -15 31 4 9 12 21 18 27 15 5 -4 13 5
16 19 8 32 1 44 -9 15z"/>
<path d="M945 1328 c1 -13 6 -30 9 -39 5 -10 2 -16 -9 -16 -11 0 -15 6 -12 19
3 10 1 18 -4 18 -5 0 -8 -20 -7 -45 3 -48 16 -54 34 -14 12 25 7 99 -6 99 -5
0 -7 -10 -5 -22z"/>
<path d="M551 1323 c0 -13 -5 -23 -11 -23 -5 0 -10 -7 -10 -15 0 -8 -4 -15 -9
-15 -5 0 -11 -7 -15 -15 -4 -12 -2 -13 12 -6 24 13 45 54 39 77 -4 16 -5 15
-6 -3z"/>
<path d="M1481 1294 c0 -22 3 -32 6 -24 3 8 10 20 14 26 6 7 3 16 -6 24 -13
11 -15 7 -14 -26z"/>
<path d="M620 1293 c0 -16 5 -35 10 -43 6 -10 9 -2 7 28 -1 46 -17 59 -17 15z"/>
<path d="M1658 1298 c-2 -13 -11 -24 -22 -26 -10 -2 -16 0 -12 6 3 5 -2 16
-11 23 -15 13 -16 11 -10 -12 6 -23 4 -26 -23 -26 -16 0 -27 4 -24 9 3 4 1 8
-5 8 -5 0 -15 -8 -20 -17 -6 -10 -11 -14 -11 -10 0 12 -30 -19 -30 -31 0 -6
-6 -13 -12 -15 -10 -4 -10 -8 1 -15 12 -8 12 -14 3 -25 -7 -8 -10 -22 -6 -31
3 -9 1 -16 -5 -16 -6 0 -11 5 -11 11 0 6 -7 8 -16 5 -13 -5 -15 -2 -11 14 3
11 1 18 -4 14 -5 -3 -9 4 -9 15 0 24 -4 25 -30 11 -21 -11 -16 -42 5 -33 9 3
16 -4 20 -20 5 -18 12 -23 26 -20 11 3 19 0 19 -7 0 -7 8 -9 22 -4 19 6 21 4
11 -7 -16 -20 -33 -88 -23 -94 4 -2 10 14 13 36 3 22 13 49 23 60 19 21 16 27
-21 43 -5 3 -1 12 9 20 15 12 23 13 33 4 11 -8 12 -7 7 6 -3 9 -15 16 -25 16
-10 0 -19 5 -19 10 0 6 7 10 16 10 8 0 12 5 9 10 -6 10 7 14 34 11 7 -2 10 2
6 9 -5 8 1 11 16 8 16 -2 23 -9 21 -20 -1 -9 3 -20 9 -24 8 -5 10 1 7 20 -5
24 -3 27 15 22 14 -3 28 3 43 21 17 20 28 24 48 19 18 -4 26 -2 26 7 0 22 -11
27 -32 16 -14 -7 -23 -7 -33 1 -11 9 -14 6 -17 -12z"/>
<path d="M2280 1313 c0 -5 4 -14 9 -22 6 -10 0 -23 -19 -45 -38 -40 -30 -47
10 -8 32 33 42 82 15 82 -8 0 -15 -3 -15 -7z"/>
<path d="M1857 1304 c-12 -12 -8 -22 13 -29 11 -3 23 -17 26 -31 7 -26 24 -33
24 -9 0 8 -4 15 -10 15 -5 0 -10 9 -10 21 0 11 -4 18 -9 14 -6 -3 -14 2 -18
10 -5 9 -12 12 -16 9z"/>
<path d="M2220 1292 c0 -13 -4 -21 -9 -18 -13 9 -30 -17 -26 -39 2 -11 4 -22
4 -25 1 -3 5 2 11 10 6 9 5 20 -3 29 -10 12 -9 14 4 9 20 -8 41 24 28 43 -7
11 -9 8 -9 -9z"/>
<path d="M654 1283 c2 -11 13 -19 27 -21 17 -2 20 0 11 6 -8 5 -13 13 -12 18
0 5 -6 10 -14 12 -9 2 -13 -3 -12 -15z"/>
<path d="M1213 1286 c-16 -19 -4 -29 15 -13 13 10 15 9 9 -5 -3 -10 -2 -20 3
-23 13 -8 19 18 8 38 -10 20 -19 21 -35 3z"/>
<path d="M1350 1290 c-10 -6 -11 -10 -2 -10 6 0 12 -12 13 -27 0 -16 3 -22 6
-15 7 18 33 15 33 -5 0 -9 3 -14 6 -10 10 10 -7 47 -21 47 -7 0 -15 7 -17 15
-2 10 -7 12 -18 5z"/>
<path d="M2092 1282 c4 -12 3 -22 0 -23 -4 0 -20 -3 -35 -5 -21 -4 -27 -2 -21
7 4 8 3 9 -5 5 -6 -4 -9 -12 -6 -17 3 -5 -1 -6 -10 -3 -10 4 -14 14 -10 28 5
19 5 19 -7 5 -10 -12 -19 -14 -37 -7 -16 5 -28 5 -35 -2 -7 -7 -3 -10 12 -10
14 0 20 -5 16 -14 -3 -8 -1 -17 5 -21 6 -3 11 1 11 9 0 24 17 19 23 -6 6 -21
7 -21 26 -4 22 20 36 7 26 -25 -5 -15 -4 -19 4 -15 6 4 11 15 11 25 0 22 19
41 34 35 20 -8 66 14 66 31 0 8 -6 15 -12 15 -7 0 -24 3 -37 7 -21 5 -23 3
-19 -15z"/>
<path d="M2506 1273 l6 -28 -21 25 c-16 20 -22 23 -32 13 -11 -11 -10 -13 0
-13 15 0 11 -40 -7 -59 -7 -7 -11 -20 -8 -27 3 -8 1 -14 -4 -14 -16 0 -21 19
-10 40 10 19 1 28 -14 13 -4 -5 -12 -8 -16 -8 -5 0 -16 -9 -24 -20 -8 -11 -18
-17 -22 -12 -9 9 36 58 47 51 5 -3 9 2 9 11 0 13 -4 14 -21 5 -16 -9 -26 -8
-44 4 -23 15 -24 15 -20 -5 2 -11 6 -28 9 -37 3 -9 2 -22 -2 -29 -9 -14 -43
-12 -55 2 -5 6 -6 1 -3 -10 7 -24 -8 -50 -23 -41 -12 8 -15 -23 -3 -40 8 -12
61 -12 80 -1 6 5 17 5 22 2 6 -3 10 3 10 14 0 14 -6 21 -20 21 -11 0 -20 -7
-20 -15 0 -9 -6 -12 -15 -9 -23 9 -18 23 10 30 14 3 25 13 25 21 0 10 6 12 21
8 15 -5 19 -4 15 4 -10 16 15 13 38 -4 17 -13 22 -13 38 1 9 9 15 21 12 25 -3
5 2 16 10 24 13 14 16 13 26 -5 11 -20 48 -45 56 -37 3 3 -2 12 -12 21 -10 11
-14 25 -10 42 7 26 -8 64 -25 64 -5 0 -7 -12 -3 -27z"/>
<path d="M560 1264 c0 -9 -9 -18 -20 -21 -11 -3 -20 -11 -20 -19 0 -16 26 -8
34 11 3 8 13 11 27 8 18 -5 21 -3 16 11 -4 10 -7 20 -7 22 0 2 -7 4 -15 4 -8
0 -15 -7 -15 -16z"/>
<path d="M1078 1230 c2 -22 8 -40 13 -40 5 0 9 4 9 10 0 5 6 7 13 5 17 -7 40
-62 33 -81 -3 -8 1 -17 9 -20 8 -4 12 -10 9 -16 -5 -8 42 -88 52 -88 2 0 -4
16 -13 35 -9 19 -20 35 -25 35 -4 0 -8 5 -8 11 0 6 7 9 15 5 21 -8 19 0 -7 25
-13 12 -18 19 -12 16 7 -4 0 16 -14 43 -14 28 -31 50 -39 50 -7 0 -15 11 -19
25 -10 39 -20 29 -16 -15z"/>
<path d="M1723 1244 c-9 -23 9 -68 30 -72 9 -2 17 2 17 8 0 7 -7 10 -14 7 -19
-8 -31 29 -16 48 7 9 8 15 0 20 -5 3 -13 -1 -17 -11z"/>
<path d="M717 1236 c-17 -13 -24 -66 -8 -66 18 0 21 -33 4 -45 -10 -8 -15 -16
-11 -20 3 -4 15 2 26 13 23 23 22 68 -2 66 -20 -2 -20 1 0 32 20 29 16 37 -9
20z"/>
<path d="M430 1227 c0 -9 13 -14 35 -15 19 -1 35 3 35 9 0 6 -4 8 -9 4 -5 -3
-12 -1 -16 5 -9 15 -45 12 -45 -3z"/>
<path d="M1847 1213 c4 -10 14 -24 22 -30 11 -9 13 -15 5 -20 -6 -5 -13 -16
-17 -26 -12 -31 -29 -8 -22 29 3 19 2 34 -3 34 -12 0 -22 -24 -22 -50 0 -11
-7 -23 -15 -27 -12 -7 -11 -10 5 -21 17 -10 20 -10 20 4 0 9 6 14 13 11 15 -5
67 30 67 46 0 7 -9 19 -19 26 -11 8 -17 20 -14 28 3 7 -2 13 -11 13 -10 0 -13
-5 -9 -17z"/>
<path d="M220 1205 c-7 -8 -9 -15 -4 -15 5 -1 -2 -10 -15 -20 -18 -15 -21 -23
-12 -33 6 -8 8 -17 4 -20 -9 -10 10 -8 26 2 8 6 11 16 6 31 -6 18 -4 22 7 17
11 -4 15 3 16 24 1 32 -9 37 -28 14z"/>
<path d="M1160 1210 c-10 -6 -8 -13 9 -31 11 -12 21 -31 21 -41 0 -10 7 -18
15 -18 8 0 15 -7 15 -16 0 -8 5 -12 10 -9 8 5 8 11 0 20 -8 9 -8 15 0 20 5 3
10 -1 10 -9 0 -9 5 -16 10 -16 15 0 12 21 -7 42 -13 14 -14 21 -5 30 9 9 16 7
28 -8 15 -19 15 -19 5 2 -5 11 -17 26 -25 33 -13 11 -17 10 -22 -4 -5 -13 -9
-14 -15 -4 -9 15 -32 20 -49 9z m61 -73 c-8 -8 -11 -6 -11 6 0 10 -7 20 -15
23 -8 4 -15 13 -15 22 0 10 8 6 26 -13 18 -20 22 -31 15 -38z"/>
<path d="M1554 1206 c-6 -17 2 -36 17 -36 12 0 12 37 -1 45 -6 3 -13 -1 -16
-9z"/>
<path d="M1797 1212 c-4 -6 -15 -8 -25 -5 -16 5 -16 5 0 -13 13 -13 21 -15 29
-7 6 6 9 17 7 24 -3 10 -6 10 -11 1z"/>
<path d="M2100 1191 c0 -24 5 -32 25 -37 30 -7 30 -7 39 24 7 22 -7 31 -19 12
-9 -15 -25 -12 -25 4 0 8 -4 18 -10 21 -6 4 -10 -6 -10 -24z"/>
<path d="M170 1199 c0 -5 -4 -8 -8 -5 -4 2 -8 -3 -8 -13 0 -12 6 -17 18 -13
19 5 26 42 8 42 -5 0 -10 -5 -10 -11z"/>
<path d="M515 1190 c-3 -5 3 -18 14 -29 12 -12 23 -16 26 -10 4 5 15 7 26 4
13 -4 19 -2 19 8 0 10 -7 13 -18 10 -10 -2 -24 3 -31 11 -15 18 -27 20 -36 6z"/>
<path d="M1290 1171 c0 -17 4 -32 9 -35 5 -3 6 -16 3 -29 -5 -20 -4 -21 11 -6
17 17 13 59 -6 59 -7 0 -7 4 1 12 16 16 15 28 -3 28 -10 0 -15 -10 -15 -29z"/>
<path d="M1570 1140 c-40 -42 -53 -61 -42 -65 20 -7 22 -6 20 8 -2 6 3 11 9
10 7 -2 15 8 19 22 3 14 10 22 15 19 5 -3 8 -1 7 3 -2 5 11 21 27 36 17 15 24
27 16 27 -7 0 -39 -27 -71 -60z"/>
<path d="M2197 1193 c-4 -3 -7 -17 -7 -30 0 -12 -4 -23 -10 -23 -5 0 -7 -7 -3
-16 3 -9 0 -20 -8 -25 -8 -4 -15 -13 -15 -19 -1 -5 -2 -15 -3 -21 0 -6 -8 -8
-18 -5 -23 9 -35 -15 -15 -30 14 -10 14 -14 3 -28 -20 -24 -5 -32 19 -11 12
11 20 13 20 6 0 -7 5 -9 10 -6 6 3 10 15 10 26 0 10 5 19 11 19 8 0 8 4 1 13
-7 8 -6 16 3 24 10 9 17 7 34 -8 11 -11 21 -24 21 -28 0 -5 7 -11 15 -15 11
-4 15 2 15 25 0 17 -4 28 -9 25 -7 -5 -20 3 -68 44 -17 14 -16 30 1 30 8 0 17
7 20 16 5 13 9 14 21 4 9 -7 18 -10 21 -7 8 8 -32 28 -48 24 -7 -2 -10 -2 -5
0 10 6 9 23 -1 23 -5 0 -12 -3 -15 -7z"/>
<path d="M920 1180 c0 -5 7 -10 15 -10 15 0 19 -11 16 -40 -2 -13 -1 -13 8 0
8 12 12 10 20 -10 9 -23 10 -21 10 17 1 33 -2 41 -13 37 -8 -3 -24 -1 -35 6
-14 7 -21 7 -21 0z"/>
<path d="M1000 1181 c0 -5 7 -11 15 -15 8 -3 15 -18 15 -34 0 -28 15 -52 33
-52 5 0 2 11 -7 25 -20 31 -20 36 2 28 11 -4 7 5 -12 25 -30 32 -46 40 -46 23z"/>
<path d="M886 1164 c-9 -22 -7 -26 5 -19 6 4 13 -2 16 -14 3 -11 9 -18 14 -15
16 9 10 39 -10 51 -16 10 -20 9 -25 -3z"/>
<path d="M1642 1171 c-8 -4 -14 -12 -13 -17 0 -5 -18 -31 -40 -57 -31 -36 -46
-46 -60 -42 -11 4 -19 2 -19 -4 0 -27 51 -9 92 32 58 57 85 117 40 88z"/>
<path d="M1677 1166 c-3 -7 10 -11 33 -11 31 0 35 2 21 11 -20 14 -49 14 -54
0z"/>
<path d="M1920 1155 c-7 -13 -10 -32 -8 -43 3 -11 1 -27 -4 -36 -5 -9 -6 -22
-1 -29 4 -6 6 -22 4 -34 -2 -18 1 -21 14 -17 10 4 15 14 12 25 -8 30 18 11 32
-24 l13 -32 7 25 c5 16 13 24 24 22 9 -2 17 3 17 10 0 7 12 30 26 51 14 21 24
43 22 49 -3 7 -18 -13 -36 -43 -17 -30 -32 -49 -33 -44 -1 6 -2 17 -3 25 0 8
-11 19 -23 25 -13 5 -23 13 -23 16 0 4 -10 5 -22 2 -21 -5 -20 -2 9 26 33 32
63 41 63 19 0 -9 3 -8 9 2 20 30 1 31 -74 5 -14 -5 -16 -4 -6 3 7 5 9 12 4 15
-6 4 -16 -4 -23 -18z m42 -78 c11 -9 14 -18 7 -28 -7 -11 -9 -11 -9 0 0 8 -7
11 -20 8 -19 -5 -28 12 -13 26 9 10 15 8 35 -6z"/>
<path d="M2034 1140 c-7 -32 -24 -51 -24 -26 0 10 -6 13 -15 10 -20 -8 -19
-20 1 -28 21 -8 44 11 44 34 0 10 5 20 12 22 9 3 9 6 0 12 -8 5 -14 -3 -18
-24z"/>
<path d="M1110 1159 c0 -2 -4 -18 -9 -35 -6 -21 -5 -31 3 -31 6 0 20 -4 31 -9
19 -7 19 -7 2 13 -10 12 -14 23 -8 24 5 3 4 12 -5 23 -8 11 -14 18 -14 15z"/>
<path d="M2393 1153 c-7 -3 -13 -11 -13 -18 0 -16 23 -26 38 -16 16 10 -8 41
-25 34z"/>
<path d="M1342 1128 c0 -13 -3 -34 -6 -48 l-7 -25 11 25 c9 19 13 21 20 11 4
-8 6 -21 3 -30 -5 -12 -3 -13 6 -5 10 9 10 20 0 53 -13 45 -27 54 -27 19z"/>
<path d="M2450 1135 c0 -8 9 -19 20 -25 21 -11 25 -4 14 24 -8 20 -34 21 -34
1z"/>
<path d="M796 1118 c-18 -59 -23 -87 -15 -82 5 3 9 12 9 20 0 8 3 14 8 14 25
1 32 17 19 44 l-14 27 -7 -23z"/>
<path d="M943 1100 c-13 -5 -23 -18 -23 -28 0 -10 -5 -23 -11 -29 -7 -7 -8
-17 -1 -29 7 -14 6 -23 -3 -31 -11 -10 -14 -10 -17 2 -2 9 -8 12 -17 6 -9 -6
-11 -18 -6 -40 4 -17 11 -29 16 -25 5 3 9 0 9 -6 0 -6 4 -9 10 -5 5 3 6 13 3
23 -6 15 -5 16 12 2 16 -14 17 -13 11 8 -5 14 -3 22 5 22 7 0 9 10 6 30 -4 17
-2 30 4 30 6 0 6 6 -1 19 -15 29 -12 41 10 41 11 0 20 5 20 10 0 6 -1 10 -2 9
-2 0 -13 -4 -25 -9z"/>
<path d="M1735 1093 c-11 -8 -19 -19 -17 -24 1 -5 -3 -9 -10 -9 -6 0 -26 -11
-45 -26 -18 -14 -33 -21 -33 -17 0 17 19 37 44 47 18 8 23 15 17 25 -12 18
-39 8 -84 -34 -21 -19 -45 -35 -54 -35 -9 0 -13 -3 -10 -7 4 -3 1 -13 -6 -22
-10 -13 20 8 71 50 26 22 21 2 -8 -31 -17 -19 -30 -37 -30 -41 0 -5 -6 -6 -13
-3 -7 2 -23 -8 -36 -22 -17 -19 -19 -25 -7 -21 19 8 21 -6 3 -25 -21 -21 -27
-59 -27 -170 0 -136 7 -219 18 -230 18 -18 22 9 6 41 -9 17 -14 37 -11 44 2 6
14 -8 27 -33 12 -25 33 -58 46 -73 25 -29 31 -57 15 -57 -6 0 -13 5 -16 10 -4
6 -12 10 -18 9 -27 -3 -38 2 -31 14 6 10 4 10 -7 0 -26 -25 -48 -15 -54 25 -3
20 -12 60 -21 87 -14 45 -14 55 -1 95 34 102 30 153 -5 71 -13 -31 -16 -62
-13 -162 2 -68 0 -113 -4 -99 -6 22 -8 23 -14 6 -4 -10 -3 -24 3 -31 9 -10 7
-13 -7 -11 -10 2 -31 -6 -47 -17 -16 -12 -26 -16 -22 -9 11 19 -5 14 -20 -5
-12 -16 -13 -16 -14 9 0 15 5 30 10 33 6 3 10 13 10 22 0 11 -5 9 -18 -7 -11
-14 -33 -24 -53 -27 -19 -2 -49 -10 -67 -19 -49 -23 -52 -8 -7 29 93 76 115
107 116 162 0 31 2 35 9 20 12 -29 11 161 -1 208 -5 20 -14 37 -19 37 -5 0
-10 6 -13 13 -5 16 1 -25 8 -50 3 -10 -5 3 -17 28 -13 25 -33 59 -45 76 -12
17 -19 34 -15 38 4 5 2 5 -4 2 -7 -4 -25 8 -41 26 -38 43 -148 104 -114 63 9
-11 8 -15 -5 -20 -10 -4 -22 -2 -28 4 -7 7 -7 10 0 10 6 0 11 7 11 15 0 8 -8
15 -18 15 -13 0 -16 -5 -12 -16 4 -11 1 -15 -13 -12 -12 2 -19 -3 -19 -12 0
-9 7 -14 18 -12 10 2 17 -3 17 -13 0 -18 17 -20 22 -3 3 7 7 5 11 -6 4 -9 3
-15 -2 -12 -7 5 -21 -15 -21 -30 0 -10 29 -2 40 11 16 19 30 19 30 0 0 -8 -5
-14 -11 -13 -6 2 -14 -3 -16 -10 -3 -8 1 -10 11 -6 11 4 16 1 16 -11 0 -9 5
-13 10 -10 6 3 10 15 10 26 0 12 7 19 19 19 22 0 71 -36 71 -53 0 -6 11 -22
24 -36 56 -61 72 -186 39 -305 -20 -75 -35 -93 -87 -107 -79 -21 -176 -61
-176 -73 0 -4 8 -5 18 -1 9 4 44 10 77 12 l60 4 -35 -31 c-32 -29 -33 -31 -10
-26 14 3 55 10 91 16 36 5 74 13 84 16 14 6 17 4 12 -8 -9 -26 114 -24 138 2
15 17 28 18 166 13 135 -6 149 -4 149 11 0 9 -8 19 -17 23 -125 41 -162 90
-182 236 -16 112 -14 158 9 209 24 55 98 127 111 107 9 -16 2 -32 -12 -24 -5
4 -9 0 -9 -9 0 -8 -6 -16 -12 -19 -7 -2 -9 -8 -5 -13 13 -13 56 42 59 75 2 31
22 42 31 19 3 -7 6 -3 6 9 1 25 49 62 71 55 16 -5 15 -4 -10 15 -11 9 -20 8
-35 -4z m-670 -52 c-3 -6 2 -14 11 -19 9 -5 12 -12 7 -15 -5 -3 -20 1 -32 10
-18 12 -20 17 -10 24 19 12 32 11 24 0z"/>
<path d="M1871 1040 c-1 -22 -4 -30 -9 -22 -7 10 -16 9 -43 -5 -19 -10 -53
-18 -76 -18 -44 -1 -62 -9 -49 -22 4 -4 16 -2 27 5 18 12 21 11 26 -7 5 -19
25 -31 22 -13 -1 4 -1 14 0 22 1 13 2 13 11 0 8 -13 10 -13 10 0 0 10 3 11 12
2 8 -8 8 -15 -1 -25 -9 -12 -8 -16 5 -21 24 -9 27 -8 21 14 -3 11 -1 17 4 14
6 -3 7 5 3 20 -6 24 -5 25 27 16 19 -6 34 -10 34 -10 1 0 2 14 3 31 1 17 -2
28 -7 25 -5 -4 -12 2 -14 11 -3 10 -5 2 -6 -17z"/>
<path d="M2074 1045 c5 -21 4 -26 -3 -15 -15 22 -27 2 -13 -20 7 -11 12 -28
12 -37 1 -16 2 -16 16 2 15 21 11 71 -8 90 -7 7 -8 0 -4 -20z"/>
<path d="M690 1044 c0 -12 -7 -15 -24 -12 -20 4 -27 -1 -37 -24 -6 -16 -10
-31 -7 -33 4 -5 60 11 90 26 20 10 28 -7 28 -59 1 -33 2 -35 14 -19 14 19 46
23 46 6 0 -5 5 -7 11 -3 6 3 8 15 6 26 -4 15 -1 18 14 13 10 -4 19 -3 19 2 0
4 3 18 6 31 4 13 2 22 -5 22 -6 0 -11 -8 -11 -17 0 -22 -47 -47 -54 -29 -3 7
-5 7 -5 -1 -1 -18 -21 -16 -21 2 0 8 5 15 10 15 6 0 10 5 10 11 0 8 -5 7 -16
-1 -13 -11 -16 -10 -21 9 -5 21 -6 21 -26 4 -20 -18 -20 -17 -14 15 4 18 2 32
-3 32 -6 0 -10 -7 -10 -16z"/>
<path d="M1244 1001 c0 -11 5 -17 10 -14 5 4 7 -1 3 -11 -8 -20 10 -59 22 -51
9 5 -19 95 -29 95 -3 0 -6 -9 -6 -19z"/>
<path d="M675 970 c-3 -5 -1 -10 4 -10 6 0 11 -7 11 -15 0 -8 4 -15 9 -15 12
0 23 29 15 41 -7 12 -31 11 -39 -1z"/>
<path d="M1411 954 c-1 -12 -7 -27 -15 -33 -10 -8 -15 -32 -15 -68 0 -55 1
-55 15 -28 11 21 12 30 3 35 -13 8 -4 43 15 63 8 8 10 20 5 32 -7 19 -8 19 -8
-1z"/>
<path d="M1367 763 c-4 -3 -7 -24 -7 -46 0 -22 3 -37 8 -33 5 6 12 86 7 86 -1
0 -5 -3 -8 -7z"/>
<path d="M1362 634 c-1 -17 -5 -47 -8 -65 -4 -28 -3 -31 6 -16 6 9 9 39 7 65
-2 29 -4 35 -5 16z"/>
<path d="M1308 549 c-10 -17 -18 -37 -18 -44 0 -7 -15 -26 -32 -40 -18 -15
-28 -25 -23 -23 39 15 62 35 78 69 24 50 19 81 -5 38z"/>
<path d="M1357 513 c-14 -49 -18 -83 -9 -83 6 0 12 21 14 48 5 51 3 64 -5 35z"/>
</g>
</svg>
